<mxfile host="app.diagrams.net" modified="2023-05-13T07:16:33.774Z" agent="Mozilla/5.0 (Macintosh; Intel Mac OS X 10_15_7) AppleWebKit/537.36 (KHTML, like Gecko) Chrome/111.0.0.0 Safari/537.36" etag="fHQB9ZWXopo_tG-KyoB_" version="21.3.0" type="device">
  <diagram name="Page-1" id="WtsSzMa_3DLvbTu7sVBv">
    <mxGraphModel dx="1195" dy="689" grid="1" gridSize="10" guides="1" tooltips="1" connect="1" arrows="1" fold="1" page="1" pageScale="1" pageWidth="827" pageHeight="1169" math="0" shadow="0">
      <root>
        <mxCell id="0" />
        <mxCell id="1" parent="0" />
        <mxCell id="95MpV1WEJJH009ucWY0k-55" value="" style="rounded=0;whiteSpace=wrap;html=1;strokeColor=none;fillColor=#D4E1F5;" vertex="1" parent="1">
          <mxGeometry x="240" y="30" width="500" height="380" as="geometry" />
        </mxCell>
        <mxCell id="95MpV1WEJJH009ucWY0k-94" style="edgeStyle=orthogonalEdgeStyle;rounded=0;orthogonalLoop=1;jettySize=auto;html=1;entryX=0.5;entryY=0;entryDx=0;entryDy=0;" edge="1" parent="1" source="95MpV1WEJJH009ucWY0k-91" target="95MpV1WEJJH009ucWY0k-45">
          <mxGeometry relative="1" as="geometry" />
        </mxCell>
        <mxCell id="95MpV1WEJJH009ucWY0k-95" style="edgeStyle=orthogonalEdgeStyle;rounded=0;orthogonalLoop=1;jettySize=auto;html=1;" edge="1" parent="1" source="95MpV1WEJJH009ucWY0k-91" target="95MpV1WEJJH009ucWY0k-41">
          <mxGeometry relative="1" as="geometry" />
        </mxCell>
        <mxCell id="95MpV1WEJJH009ucWY0k-91" value="S3" style="whiteSpace=wrap;html=1;aspect=fixed;fillColor=#d5e8d4;strokeColor=#82b366;" vertex="1" parent="1">
          <mxGeometry x="571" y="180" width="80" height="80" as="geometry" />
        </mxCell>
        <mxCell id="95MpV1WEJJH009ucWY0k-8" style="edgeStyle=orthogonalEdgeStyle;rounded=0;orthogonalLoop=1;jettySize=auto;html=1;entryX=0;entryY=0.75;entryDx=0;entryDy=0;" edge="1" parent="1" source="95MpV1WEJJH009ucWY0k-4" target="95MpV1WEJJH009ucWY0k-23">
          <mxGeometry relative="1" as="geometry">
            <mxPoint x="310" y="160" as="targetPoint" />
          </mxGeometry>
        </mxCell>
        <mxCell id="95MpV1WEJJH009ucWY0k-4" value="Kafka Stream" style="ellipse;whiteSpace=wrap;html=1;aspect=fixed;fillColor=#dae8fc;strokeColor=#6c8ebf;" vertex="1" parent="1">
          <mxGeometry x="130" y="180" width="80" height="80" as="geometry" />
        </mxCell>
        <mxCell id="95MpV1WEJJH009ucWY0k-7" style="edgeStyle=orthogonalEdgeStyle;rounded=0;orthogonalLoop=1;jettySize=auto;html=1;startArrow=none;startFill=0;entryX=0;entryY=0.5;entryDx=0;entryDy=0;" edge="1" parent="1" source="95MpV1WEJJH009ucWY0k-5" target="95MpV1WEJJH009ucWY0k-23">
          <mxGeometry relative="1" as="geometry">
            <mxPoint x="370" y="100" as="targetPoint" />
          </mxGeometry>
        </mxCell>
        <mxCell id="95MpV1WEJJH009ucWY0k-5" value="Web App API" style="ellipse;whiteSpace=wrap;html=1;aspect=fixed;fillColor=#dae8fc;strokeColor=#6c8ebf;" vertex="1" parent="1">
          <mxGeometry x="130" y="90" width="80" height="80" as="geometry" />
        </mxCell>
        <mxCell id="95MpV1WEJJH009ucWY0k-20" style="edgeStyle=orthogonalEdgeStyle;rounded=0;orthogonalLoop=1;jettySize=auto;html=1;entryX=0.5;entryY=1;entryDx=0;entryDy=0;" edge="1" parent="1" source="95MpV1WEJJH009ucWY0k-73" target="95MpV1WEJJH009ucWY0k-4">
          <mxGeometry relative="1" as="geometry">
            <mxPoint x="170" y="344" as="sourcePoint" />
          </mxGeometry>
        </mxCell>
        <mxCell id="95MpV1WEJJH009ucWY0k-28" style="edgeStyle=orthogonalEdgeStyle;rounded=0;orthogonalLoop=1;jettySize=auto;html=1;entryX=0.5;entryY=1;entryDx=0;entryDy=0;" edge="1" parent="1" source="95MpV1WEJJH009ucWY0k-73" target="95MpV1WEJJH009ucWY0k-26">
          <mxGeometry relative="1" as="geometry">
            <mxPoint x="230" y="375" as="sourcePoint" />
          </mxGeometry>
        </mxCell>
        <mxCell id="95MpV1WEJJH009ucWY0k-19" style="edgeStyle=orthogonalEdgeStyle;rounded=0;orthogonalLoop=1;jettySize=auto;html=1;entryX=0;entryY=0.5;entryDx=0;entryDy=0;endArrow=classic;endFill=1;startArrow=none;startFill=0;" edge="1" parent="1" target="95MpV1WEJJH009ucWY0k-5">
          <mxGeometry relative="1" as="geometry">
            <mxPoint x="90" y="130" as="sourcePoint" />
          </mxGeometry>
        </mxCell>
        <mxCell id="95MpV1WEJJH009ucWY0k-27" style="edgeStyle=orthogonalEdgeStyle;rounded=0;orthogonalLoop=1;jettySize=auto;html=1;startArrow=classic;startFill=1;" edge="1" parent="1" source="95MpV1WEJJH009ucWY0k-23" target="95MpV1WEJJH009ucWY0k-26">
          <mxGeometry relative="1" as="geometry" />
        </mxCell>
        <mxCell id="95MpV1WEJJH009ucWY0k-53" style="edgeStyle=orthogonalEdgeStyle;rounded=0;orthogonalLoop=1;jettySize=auto;html=1;exitX=1;exitY=0.75;exitDx=0;exitDy=0;" edge="1" parent="1" source="95MpV1WEJJH009ucWY0k-23" target="95MpV1WEJJH009ucWY0k-44">
          <mxGeometry relative="1" as="geometry" />
        </mxCell>
        <mxCell id="95MpV1WEJJH009ucWY0k-54" style="edgeStyle=orthogonalEdgeStyle;rounded=0;orthogonalLoop=1;jettySize=auto;html=1;" edge="1" parent="1" source="95MpV1WEJJH009ucWY0k-23">
          <mxGeometry relative="1" as="geometry">
            <mxPoint x="611" y="180" as="targetPoint" />
          </mxGeometry>
        </mxCell>
        <mxCell id="95MpV1WEJJH009ucWY0k-23" value="API Gateway" style="whiteSpace=wrap;html=1;aspect=fixed;fillColor=#fad9d5;strokeColor=#ae4132;" vertex="1" parent="1">
          <mxGeometry x="302" y="90" width="80" height="80" as="geometry" />
        </mxCell>
        <mxCell id="95MpV1WEJJH009ucWY0k-26" value="AWS Lambda" style="whiteSpace=wrap;html=1;aspect=fixed;fillColor=#ffe6cc;strokeColor=#d79b00;" vertex="1" parent="1">
          <mxGeometry x="302" y="260" width="80" height="80" as="geometry" />
        </mxCell>
        <mxCell id="95MpV1WEJJH009ucWY0k-34" value="AWS Cloud Infrastructure" style="text;html=1;strokeColor=default;fillColor=none;align=center;verticalAlign=middle;whiteSpace=wrap;rounded=0;" vertex="1" parent="1">
          <mxGeometry x="250" y="43" width="150" height="30" as="geometry" />
        </mxCell>
        <mxCell id="95MpV1WEJJH009ucWY0k-36" value="" style="rounded=0;whiteSpace=wrap;html=1;fillColor=#d5e8d4;strokeColor=#82b366;" vertex="1" parent="1">
          <mxGeometry x="120" y="713" width="570" height="340" as="geometry" />
        </mxCell>
        <mxCell id="95MpV1WEJJH009ucWY0k-67" style="edgeStyle=orthogonalEdgeStyle;rounded=0;orthogonalLoop=1;jettySize=auto;html=1;startArrow=classic;startFill=1;" edge="1" parent="1" source="95MpV1WEJJH009ucWY0k-41" target="95MpV1WEJJH009ucWY0k-45">
          <mxGeometry relative="1" as="geometry" />
        </mxCell>
        <mxCell id="95MpV1WEJJH009ucWY0k-81" style="edgeStyle=orthogonalEdgeStyle;rounded=0;orthogonalLoop=1;jettySize=auto;html=1;exitX=0.25;exitY=1;exitDx=0;exitDy=0;" edge="1" parent="1" source="95MpV1WEJJH009ucWY0k-41" target="95MpV1WEJJH009ucWY0k-78">
          <mxGeometry relative="1" as="geometry" />
        </mxCell>
        <mxCell id="95MpV1WEJJH009ucWY0k-41" value="Athena" style="whiteSpace=wrap;html=1;aspect=fixed;fillColor=#e1d5e7;strokeColor=#9673a6;" vertex="1" parent="1">
          <mxGeometry x="631" y="315" width="80" height="80" as="geometry" />
        </mxCell>
        <mxCell id="95MpV1WEJJH009ucWY0k-48" style="edgeStyle=orthogonalEdgeStyle;rounded=0;orthogonalLoop=1;jettySize=auto;html=1;entryX=0;entryY=0.5;entryDx=0;entryDy=0;" edge="1" parent="1" source="95MpV1WEJJH009ucWY0k-44" target="95MpV1WEJJH009ucWY0k-91">
          <mxGeometry relative="1" as="geometry">
            <mxPoint x="581" y="220" as="targetPoint" />
          </mxGeometry>
        </mxCell>
        <mxCell id="95MpV1WEJJH009ucWY0k-44" value="Glue" style="whiteSpace=wrap;html=1;aspect=fixed;fillColor=#e1d5e7;strokeColor=#9673a6;" vertex="1" parent="1">
          <mxGeometry x="426" y="180" width="80" height="80" as="geometry" />
        </mxCell>
        <mxCell id="95MpV1WEJJH009ucWY0k-80" style="edgeStyle=orthogonalEdgeStyle;rounded=0;orthogonalLoop=1;jettySize=auto;html=1;exitX=0.75;exitY=1;exitDx=0;exitDy=0;" edge="1" parent="1" source="95MpV1WEJJH009ucWY0k-45" target="95MpV1WEJJH009ucWY0k-78">
          <mxGeometry relative="1" as="geometry" />
        </mxCell>
        <mxCell id="95MpV1WEJJH009ucWY0k-45" value="QuickSight" style="whiteSpace=wrap;html=1;aspect=fixed;fillColor=#e1d5e7;strokeColor=#9673a6;" vertex="1" parent="1">
          <mxGeometry x="506" y="315" width="80" height="80" as="geometry" />
        </mxCell>
        <mxCell id="95MpV1WEJJH009ucWY0k-56" value="Raw Images &amp;amp; Metadata" style="text;html=1;strokeColor=none;fillColor=none;align=center;verticalAlign=middle;whiteSpace=wrap;rounded=0;" vertex="1" parent="1">
          <mxGeometry x="616" y="130" width="60" height="30" as="geometry" />
        </mxCell>
        <mxCell id="95MpV1WEJJH009ucWY0k-57" value="Raw Data" style="text;html=1;strokeColor=none;fillColor=none;align=center;verticalAlign=middle;whiteSpace=wrap;rounded=0;" vertex="1" parent="1">
          <mxGeometry x="466" y="130" width="60" height="30" as="geometry" />
        </mxCell>
        <mxCell id="95MpV1WEJJH009ucWY0k-59" value="Data" style="text;html=1;strokeColor=none;fillColor=none;align=center;verticalAlign=middle;whiteSpace=wrap;rounded=0;" vertex="1" parent="1">
          <mxGeometry x="663.5" y="270" width="60" height="30" as="geometry" />
        </mxCell>
        <mxCell id="95MpV1WEJJH009ucWY0k-68" value="Result Data" style="text;html=1;strokeColor=none;fillColor=none;align=center;verticalAlign=middle;whiteSpace=wrap;rounded=0;" vertex="1" parent="1">
          <mxGeometry x="581" y="411" width="60" height="30" as="geometry" />
        </mxCell>
        <mxCell id="95MpV1WEJJH009ucWY0k-69" value="Query" style="text;html=1;strokeColor=none;fillColor=none;align=center;verticalAlign=middle;whiteSpace=wrap;rounded=0;" vertex="1" parent="1">
          <mxGeometry x="690" y="437" width="60" height="30" as="geometry" />
        </mxCell>
        <mxCell id="95MpV1WEJJH009ucWY0k-71" value="Commands" style="text;html=1;strokeColor=none;fillColor=none;align=center;verticalAlign=middle;whiteSpace=wrap;rounded=0;" vertex="1" parent="1">
          <mxGeometry x="462" y="437" width="60" height="30" as="geometry" />
        </mxCell>
        <mxCell id="95MpV1WEJJH009ucWY0k-72" value="S3 Infrastructure" style="text;html=1;strokeColor=default;fillColor=none;align=center;verticalAlign=middle;whiteSpace=wrap;rounded=0;" vertex="1" parent="1">
          <mxGeometry x="135" y="718" width="150" height="30" as="geometry" />
        </mxCell>
        <mxCell id="95MpV1WEJJH009ucWY0k-73" value="Engineers&lt;br&gt;" style="sketch=0;outlineConnect=0;gradientColor=none;fontColor=#545B64;strokeColor=none;fillColor=#000000;dashed=0;verticalLabelPosition=bottom;verticalAlign=top;align=center;html=1;fontSize=12;fontStyle=0;aspect=fixed;shape=mxgraph.aws4.illustration_users;pointerEvents=1" vertex="1" parent="1">
          <mxGeometry x="140" y="335" width="60" height="60" as="geometry" />
        </mxCell>
        <mxCell id="95MpV1WEJJH009ucWY0k-83" style="edgeStyle=orthogonalEdgeStyle;rounded=0;orthogonalLoop=1;jettySize=auto;html=1;entryX=0.25;entryY=1;entryDx=0;entryDy=0;" edge="1" parent="1" source="95MpV1WEJJH009ucWY0k-78" target="95MpV1WEJJH009ucWY0k-45">
          <mxGeometry relative="1" as="geometry">
            <mxPoint x="546" y="520" as="sourcePoint" />
            <Array as="points">
              <mxPoint x="526" y="520" />
            </Array>
          </mxGeometry>
        </mxCell>
        <mxCell id="95MpV1WEJJH009ucWY0k-84" style="edgeStyle=orthogonalEdgeStyle;rounded=0;orthogonalLoop=1;jettySize=auto;html=1;entryX=0.75;entryY=1;entryDx=0;entryDy=0;" edge="1" parent="1" source="95MpV1WEJJH009ucWY0k-78" target="95MpV1WEJJH009ucWY0k-41">
          <mxGeometry relative="1" as="geometry">
            <mxPoint x="660" y="520" as="sourcePoint" />
            <Array as="points">
              <mxPoint x="691" y="520" />
            </Array>
          </mxGeometry>
        </mxCell>
        <mxCell id="95MpV1WEJJH009ucWY0k-78" value="Analysts" style="sketch=0;outlineConnect=0;gradientColor=none;fontColor=#545B64;strokeColor=none;fillColor=#000000;dashed=0;verticalLabelPosition=bottom;verticalAlign=top;align=center;html=1;fontSize=12;fontStyle=0;aspect=fixed;shape=mxgraph.aws4.illustration_users;pointerEvents=1" vertex="1" parent="1">
          <mxGeometry x="581" y="490" width="60" height="60" as="geometry" />
        </mxCell>
        <mxCell id="95MpV1WEJJH009ucWY0k-79" value="Users" style="sketch=0;outlineConnect=0;gradientColor=none;fontColor=#545B64;strokeColor=none;fillColor=#000000;dashed=0;verticalLabelPosition=bottom;verticalAlign=top;align=center;html=1;fontSize=12;fontStyle=0;aspect=fixed;shape=mxgraph.aws4.illustration_users;pointerEvents=1" vertex="1" parent="1">
          <mxGeometry x="20" y="100" width="60" height="60" as="geometry" />
        </mxCell>
        <mxCell id="95MpV1WEJJH009ucWY0k-86" value="" style="sketch=0;points=[[0,0,0],[0.25,0,0],[0.5,0,0],[0.75,0,0],[1,0,0],[0,1,0],[0.25,1,0],[0.5,1,0],[0.75,1,0],[1,1,0],[0,0.25,0],[0,0.5,0],[0,0.75,0],[1,0.25,0],[1,0.5,0],[1,0.75,0]];outlineConnect=0;fontColor=#232F3E;gradientColor=#945DF2;gradientDirection=north;fillColor=#5A30B5;strokeColor=#ffffff;dashed=0;verticalLabelPosition=bottom;verticalAlign=top;align=center;html=1;fontSize=12;fontStyle=0;aspect=fixed;shape=mxgraph.aws4.resourceIcon;resIcon=mxgraph.aws4.athena;" vertex="1" parent="1">
          <mxGeometry x="690" y="305" width="35" height="35" as="geometry" />
        </mxCell>
        <mxCell id="95MpV1WEJJH009ucWY0k-87" value="" style="sketch=0;points=[[0,0,0],[0.25,0,0],[0.5,0,0],[0.75,0,0],[1,0,0],[0,1,0],[0.25,1,0],[0.5,1,0],[0.75,1,0],[1,1,0],[0,0.25,0],[0,0.5,0],[0,0.75,0],[1,0.25,0],[1,0.5,0],[1,0.75,0]];outlineConnect=0;fontColor=#232F3E;gradientColor=#945DF2;gradientDirection=north;fillColor=#5A30B5;strokeColor=#ffffff;dashed=0;verticalLabelPosition=bottom;verticalAlign=top;align=center;html=1;fontSize=12;fontStyle=0;aspect=fixed;shape=mxgraph.aws4.resourceIcon;resIcon=mxgraph.aws4.glue;" vertex="1" parent="1">
          <mxGeometry x="478.5" y="230" width="35" height="35" as="geometry" />
        </mxCell>
        <mxCell id="95MpV1WEJJH009ucWY0k-89" value="" style="sketch=0;points=[[0,0,0],[0.25,0,0],[0.5,0,0],[0.75,0,0],[1,0,0],[0,1,0],[0.25,1,0],[0.5,1,0],[0.75,1,0],[1,1,0],[0,0.25,0],[0,0.5,0],[0,0.75,0],[1,0.25,0],[1,0.5,0],[1,0.75,0]];outlineConnect=0;fontColor=#232F3E;gradientColor=#945DF2;gradientDirection=north;fillColor=#5A30B5;strokeColor=#ffffff;dashed=0;verticalLabelPosition=bottom;verticalAlign=top;align=center;html=1;fontSize=12;fontStyle=0;aspect=fixed;shape=mxgraph.aws4.resourceIcon;resIcon=mxgraph.aws4.quicksight;" vertex="1" parent="1">
          <mxGeometry x="560" y="305" width="35" height="35" as="geometry" />
        </mxCell>
        <mxCell id="95MpV1WEJJH009ucWY0k-90" value="" style="sketch=0;points=[[0,0,0],[0.25,0,0],[0.5,0,0],[0.75,0,0],[1,0,0],[0,1,0],[0.25,1,0],[0.5,1,0],[0.75,1,0],[1,1,0],[0,0.25,0],[0,0.5,0],[0,0.75,0],[1,0.25,0],[1,0.5,0],[1,0.75,0]];outlineConnect=0;fontColor=#232F3E;gradientColor=#60A337;gradientDirection=north;fillColor=#277116;strokeColor=#ffffff;dashed=0;verticalLabelPosition=bottom;verticalAlign=top;align=center;html=1;fontSize=12;fontStyle=0;aspect=fixed;shape=mxgraph.aws4.resourceIcon;resIcon=mxgraph.aws4.s3;" vertex="1" parent="1">
          <mxGeometry x="628.5" y="230" width="35" height="35" as="geometry" />
        </mxCell>
        <mxCell id="95MpV1WEJJH009ucWY0k-58" value="Clean Data" style="text;html=1;strokeColor=none;fillColor=none;align=center;verticalAlign=middle;whiteSpace=wrap;rounded=0;" vertex="1" parent="1">
          <mxGeometry x="511" y="232.5" width="60" height="30" as="geometry" />
        </mxCell>
        <mxCell id="95MpV1WEJJH009ucWY0k-96" value="" style="sketch=0;points=[[0,0,0],[0.25,0,0],[0.5,0,0],[0.75,0,0],[1,0,0],[0,1,0],[0.25,1,0],[0.5,1,0],[0.75,1,0],[1,1,0],[0,0.25,0],[0,0.5,0],[0,0.75,0],[1,0.25,0],[1,0.5,0],[1,0.75,0]];outlineConnect=0;fontColor=#232F3E;gradientColor=#F78E04;gradientDirection=north;fillColor=#D05C17;strokeColor=#ffffff;dashed=0;verticalLabelPosition=bottom;verticalAlign=top;align=center;html=1;fontSize=12;fontStyle=0;aspect=fixed;shape=mxgraph.aws4.resourceIcon;resIcon=mxgraph.aws4.lambda;" vertex="1" parent="1">
          <mxGeometry x="360" y="315" width="35" height="35" as="geometry" />
        </mxCell>
        <mxCell id="95MpV1WEJJH009ucWY0k-97" value="" style="sketch=0;points=[[0,0,0],[0.25,0,0],[0.5,0,0],[0.75,0,0],[1,0,0],[0,1,0],[0.25,1,0],[0.5,1,0],[0.75,1,0],[1,1,0],[0,0.25,0],[0,0.5,0],[0,0.75,0],[1,0.25,0],[1,0.5,0],[1,0.75,0]];outlineConnect=0;fontColor=#232F3E;gradientColor=#FF4F8B;gradientDirection=north;fillColor=#BC1356;strokeColor=#ffffff;dashed=0;verticalLabelPosition=bottom;verticalAlign=top;align=center;html=1;fontSize=12;fontStyle=0;aspect=fixed;shape=mxgraph.aws4.resourceIcon;resIcon=mxgraph.aws4.api_gateway;" vertex="1" parent="1">
          <mxGeometry x="350" y="145" width="35" height="35" as="geometry" />
        </mxCell>
        <mxCell id="95MpV1WEJJH009ucWY0k-98" value="" style="sketch=0;points=[[0,0,0],[0.25,0,0],[0.5,0,0],[0.75,0,0],[1,0,0],[0,1,0],[0.25,1,0],[0.5,1,0],[0.75,1,0],[1,1,0],[0,0.25,0],[0,0.5,0],[0,0.75,0],[1,0.25,0],[1,0.5,0],[1,0.75,0]];outlineConnect=0;fontColor=#232F3E;gradientColor=#60A337;gradientDirection=north;fillColor=#277116;strokeColor=#ffffff;dashed=0;verticalLabelPosition=bottom;verticalAlign=top;align=center;html=1;fontSize=12;fontStyle=0;aspect=fixed;shape=mxgraph.aws4.resourceIcon;resIcon=mxgraph.aws4.s3;" vertex="1" parent="1">
          <mxGeometry x="86" y="713" width="35" height="35" as="geometry" />
        </mxCell>
        <mxCell id="95MpV1WEJJH009ucWY0k-111" style="edgeStyle=orthogonalEdgeStyle;rounded=0;orthogonalLoop=1;jettySize=auto;html=1;" edge="1" parent="1" source="95MpV1WEJJH009ucWY0k-102" target="95MpV1WEJJH009ucWY0k-105">
          <mxGeometry relative="1" as="geometry" />
        </mxCell>
        <mxCell id="95MpV1WEJJH009ucWY0k-102" value="Raw Images &amp;amp; Metadata" style="ellipse;whiteSpace=wrap;html=1;aspect=fixed;fillColor=#dae8fc;strokeColor=#6c8ebf;" vertex="1" parent="1">
          <mxGeometry x="334" y="593" width="80" height="80" as="geometry" />
        </mxCell>
        <mxCell id="95MpV1WEJJH009ucWY0k-114" style="edgeStyle=orthogonalEdgeStyle;rounded=0;orthogonalLoop=1;jettySize=auto;html=1;" edge="1" parent="1" source="95MpV1WEJJH009ucWY0k-103" target="95MpV1WEJJH009ucWY0k-113">
          <mxGeometry relative="1" as="geometry">
            <mxPoint x="490" y="703" as="targetPoint" />
          </mxGeometry>
        </mxCell>
        <mxCell id="95MpV1WEJJH009ucWY0k-103" value="Raw Data" style="ellipse;whiteSpace=wrap;html=1;aspect=fixed;fillColor=#dae8fc;strokeColor=#6c8ebf;" vertex="1" parent="1">
          <mxGeometry x="450" y="593" width="80" height="80" as="geometry" />
        </mxCell>
        <mxCell id="95MpV1WEJJH009ucWY0k-104" value="Sales" style="sketch=0;outlineConnect=0;gradientColor=none;fontColor=#545B64;strokeColor=none;fillColor=#000000;dashed=0;verticalLabelPosition=bottom;verticalAlign=top;align=center;html=1;fontSize=12;fontStyle=0;aspect=fixed;shape=mxgraph.aws4.illustration_users;pointerEvents=1" vertex="1" parent="1">
          <mxGeometry x="460" y="1083" width="60" height="60" as="geometry" />
        </mxCell>
        <mxCell id="95MpV1WEJJH009ucWY0k-105" value="" style="sketch=0;outlineConnect=0;fontColor=#232F3E;gradientColor=none;fillColor=#3F8624;strokeColor=none;dashed=0;verticalLabelPosition=bottom;verticalAlign=top;align=center;html=1;fontSize=12;fontStyle=0;aspect=fixed;pointerEvents=1;shape=mxgraph.aws4.bucket_with_objects;" vertex="1" parent="1">
          <mxGeometry x="284" y="883.97" width="50" height="52" as="geometry" />
        </mxCell>
        <mxCell id="95MpV1WEJJH009ucWY0k-124" style="edgeStyle=orthogonalEdgeStyle;rounded=0;orthogonalLoop=1;jettySize=auto;html=1;startArrow=classic;startFill=1;" edge="1" parent="1" source="95MpV1WEJJH009ucWY0k-106" target="95MpV1WEJJH009ucWY0k-107">
          <mxGeometry relative="1" as="geometry" />
        </mxCell>
        <mxCell id="95MpV1WEJJH009ucWY0k-106" value="" style="sketch=0;outlineConnect=0;fontColor=#232F3E;gradientColor=none;fillColor=#3F8624;strokeColor=none;dashed=0;verticalLabelPosition=bottom;verticalAlign=top;align=center;html=1;fontSize=12;fontStyle=0;aspect=fixed;pointerEvents=1;shape=mxgraph.aws4.bucket_with_objects;" vertex="1" parent="1">
          <mxGeometry x="389" y="883.97" width="50" height="52" as="geometry" />
        </mxCell>
        <mxCell id="95MpV1WEJJH009ucWY0k-126" style="edgeStyle=orthogonalEdgeStyle;rounded=0;orthogonalLoop=1;jettySize=auto;html=1;startArrow=classic;startFill=1;" edge="1" parent="1" source="95MpV1WEJJH009ucWY0k-107" target="95MpV1WEJJH009ucWY0k-119">
          <mxGeometry relative="1" as="geometry" />
        </mxCell>
        <mxCell id="95MpV1WEJJH009ucWY0k-107" value="" style="sketch=0;outlineConnect=0;fontColor=#232F3E;gradientColor=none;fillColor=#3F8624;strokeColor=none;dashed=0;verticalLabelPosition=bottom;verticalAlign=top;align=center;html=1;fontSize=12;fontStyle=0;aspect=fixed;pointerEvents=1;shape=mxgraph.aws4.policy;" vertex="1" parent="1">
          <mxGeometry x="396.5" y="973" width="35" height="30.06" as="geometry" />
        </mxCell>
        <mxCell id="95MpV1WEJJH009ucWY0k-110" style="edgeStyle=orthogonalEdgeStyle;rounded=0;orthogonalLoop=1;jettySize=auto;html=1;" edge="1" parent="1" source="95MpV1WEJJH009ucWY0k-108" target="95MpV1WEJJH009ucWY0k-105">
          <mxGeometry relative="1" as="geometry" />
        </mxCell>
        <mxCell id="95MpV1WEJJH009ucWY0k-108" value="" style="sketch=0;outlineConnect=0;fontColor=#232F3E;gradientColor=none;fillColor=#3F8624;strokeColor=none;dashed=0;verticalLabelPosition=bottom;verticalAlign=top;align=center;html=1;fontSize=12;fontStyle=0;aspect=fixed;pointerEvents=1;shape=mxgraph.aws4.policy;" vertex="1" parent="1">
          <mxGeometry x="165" y="894.94" width="35" height="30.06" as="geometry" />
        </mxCell>
        <mxCell id="95MpV1WEJJH009ucWY0k-112" value="Lifecycle Rule" style="text;html=1;strokeColor=none;fillColor=none;align=center;verticalAlign=middle;whiteSpace=wrap;rounded=0;" vertex="1" parent="1">
          <mxGeometry x="140" y="914.03" width="90" height="30" as="geometry" />
        </mxCell>
        <mxCell id="95MpV1WEJJH009ucWY0k-121" style="edgeStyle=orthogonalEdgeStyle;rounded=0;orthogonalLoop=1;jettySize=auto;html=1;" edge="1" parent="1" source="95MpV1WEJJH009ucWY0k-113" target="95MpV1WEJJH009ucWY0k-115">
          <mxGeometry relative="1" as="geometry" />
        </mxCell>
        <mxCell id="95MpV1WEJJH009ucWY0k-122" style="edgeStyle=orthogonalEdgeStyle;rounded=0;orthogonalLoop=1;jettySize=auto;html=1;" edge="1" parent="1" target="95MpV1WEJJH009ucWY0k-106">
          <mxGeometry relative="1" as="geometry">
            <mxPoint x="490" y="853" as="sourcePoint" />
          </mxGeometry>
        </mxCell>
        <mxCell id="95MpV1WEJJH009ucWY0k-123" style="edgeStyle=orthogonalEdgeStyle;rounded=0;orthogonalLoop=1;jettySize=auto;html=1;exitX=0.5;exitY=1.09;exitDx=0;exitDy=0;exitPerimeter=0;" edge="1" parent="1" source="95MpV1WEJJH009ucWY0k-113" target="95MpV1WEJJH009ucWY0k-116">
          <mxGeometry relative="1" as="geometry" />
        </mxCell>
        <mxCell id="95MpV1WEJJH009ucWY0k-113" value="" style="sketch=0;outlineConnect=0;fontColor=#232F3E;gradientColor=none;fillColor=#3F8624;strokeColor=none;dashed=0;verticalLabelPosition=bottom;verticalAlign=top;align=center;html=1;fontSize=12;fontStyle=0;aspect=fixed;pointerEvents=1;shape=mxgraph.aws4.bucket;" vertex="1" parent="1">
          <mxGeometry x="452.5" y="768" width="75" height="78" as="geometry" />
        </mxCell>
        <mxCell id="95MpV1WEJJH009ucWY0k-129" style="edgeStyle=orthogonalEdgeStyle;rounded=0;orthogonalLoop=1;jettySize=auto;html=1;startArrow=classic;startFill=1;" edge="1" parent="1" source="95MpV1WEJJH009ucWY0k-115" target="95MpV1WEJJH009ucWY0k-117">
          <mxGeometry relative="1" as="geometry" />
        </mxCell>
        <mxCell id="95MpV1WEJJH009ucWY0k-115" value="" style="sketch=0;outlineConnect=0;fontColor=#232F3E;gradientColor=none;fillColor=#3F8624;strokeColor=none;dashed=0;verticalLabelPosition=bottom;verticalAlign=top;align=center;html=1;fontSize=12;fontStyle=0;aspect=fixed;pointerEvents=1;shape=mxgraph.aws4.bucket_with_objects;" vertex="1" parent="1">
          <mxGeometry x="465" y="883.97" width="50" height="52" as="geometry" />
        </mxCell>
        <mxCell id="95MpV1WEJJH009ucWY0k-130" style="edgeStyle=orthogonalEdgeStyle;rounded=0;orthogonalLoop=1;jettySize=auto;html=1;startArrow=classic;startFill=1;" edge="1" parent="1" source="95MpV1WEJJH009ucWY0k-116" target="95MpV1WEJJH009ucWY0k-118">
          <mxGeometry relative="1" as="geometry" />
        </mxCell>
        <mxCell id="95MpV1WEJJH009ucWY0k-116" value="" style="sketch=0;outlineConnect=0;fontColor=#232F3E;gradientColor=none;fillColor=#3F8624;strokeColor=none;dashed=0;verticalLabelPosition=bottom;verticalAlign=top;align=center;html=1;fontSize=12;fontStyle=0;aspect=fixed;pointerEvents=1;shape=mxgraph.aws4.bucket_with_objects;" vertex="1" parent="1">
          <mxGeometry x="552.5" y="883.97" width="50" height="52" as="geometry" />
        </mxCell>
        <mxCell id="95MpV1WEJJH009ucWY0k-127" style="edgeStyle=orthogonalEdgeStyle;rounded=0;orthogonalLoop=1;jettySize=auto;html=1;startArrow=classic;startFill=1;" edge="1" parent="1" source="95MpV1WEJJH009ucWY0k-117" target="95MpV1WEJJH009ucWY0k-104">
          <mxGeometry relative="1" as="geometry" />
        </mxCell>
        <mxCell id="95MpV1WEJJH009ucWY0k-117" value="" style="sketch=0;outlineConnect=0;fontColor=#232F3E;gradientColor=none;fillColor=#3F8624;strokeColor=none;dashed=0;verticalLabelPosition=bottom;verticalAlign=top;align=center;html=1;fontSize=12;fontStyle=0;aspect=fixed;pointerEvents=1;shape=mxgraph.aws4.policy;" vertex="1" parent="1">
          <mxGeometry x="472.5" y="973" width="35" height="30.06" as="geometry" />
        </mxCell>
        <mxCell id="95MpV1WEJJH009ucWY0k-128" style="edgeStyle=orthogonalEdgeStyle;rounded=0;orthogonalLoop=1;jettySize=auto;html=1;startArrow=classic;startFill=1;" edge="1" parent="1" source="95MpV1WEJJH009ucWY0k-118" target="95MpV1WEJJH009ucWY0k-120">
          <mxGeometry relative="1" as="geometry" />
        </mxCell>
        <mxCell id="95MpV1WEJJH009ucWY0k-118" value="" style="sketch=0;outlineConnect=0;fontColor=#232F3E;gradientColor=none;fillColor=#3F8624;strokeColor=none;dashed=0;verticalLabelPosition=bottom;verticalAlign=top;align=center;html=1;fontSize=12;fontStyle=0;aspect=fixed;pointerEvents=1;shape=mxgraph.aws4.policy;" vertex="1" parent="1">
          <mxGeometry x="560" y="973" width="35" height="30.06" as="geometry" />
        </mxCell>
        <mxCell id="95MpV1WEJJH009ucWY0k-119" value="Finance" style="sketch=0;outlineConnect=0;gradientColor=none;fontColor=#545B64;strokeColor=none;fillColor=#000000;dashed=0;verticalLabelPosition=bottom;verticalAlign=top;align=center;html=1;fontSize=12;fontStyle=0;aspect=fixed;shape=mxgraph.aws4.illustration_users;pointerEvents=1" vertex="1" parent="1">
          <mxGeometry x="383" y="1083" width="60" height="60" as="geometry" />
        </mxCell>
        <mxCell id="95MpV1WEJJH009ucWY0k-120" value="Analytics" style="sketch=0;outlineConnect=0;gradientColor=none;fontColor=#545B64;strokeColor=none;fillColor=#000000;dashed=0;verticalLabelPosition=bottom;verticalAlign=top;align=center;html=1;fontSize=12;fontStyle=0;aspect=fixed;shape=mxgraph.aws4.illustration_users;pointerEvents=1" vertex="1" parent="1">
          <mxGeometry x="547.5" y="1083" width="60" height="60" as="geometry" />
        </mxCell>
      </root>
    </mxGraphModel>
  </diagram>
</mxfile>
